<svg width="32" height="32" viewBox="0 0 32 32" fill="none" xmlns="http://www.w3.org/2000/svg">
<path d="M22.6667 16C22.6667 19.6819 19.6819 22.6667 16 22.6667C12.3181 22.6667 9.33333 19.6819 9.33333 16C9.33333 12.3181 12.3181 9.33334 16 9.33334" stroke="#E0E0E0"/>
<path d="M18.6667 2.93338C17.8051 2.75847 16.9132 2.66666 16 2.66666C8.6362 2.66666 2.66667 8.63619 2.66667 16C2.66667 23.3637 8.6362 29.3333 16 29.3333C23.3637 29.3333 29.3333 23.3637 29.3333 16C29.3333 15.0868 29.2415 14.1949 29.0667 13.3333" stroke="#E0E0E0"/>
<path d="M16.0404 15.9499L22.1109 9.87932M26.3205 5.79268L25.5829 3.14316C25.4471 2.70667 24.9219 2.53272 24.5679 2.82202C22.6531 4.38676 20.5672 6.4944 22.2707 9.81877C25.7028 11.4192 27.6621 9.26097 29.1644 7.44692C29.4633 7.08599 29.2831 6.54341 28.8329 6.41325L26.3205 5.79268Z" stroke="#E0E0E0"/>
</svg>
