<svg width="32" height="32" viewBox="0 0 32 32" fill="none" xmlns="http://www.w3.org/2000/svg">
<path d="M20.0003 22.6667C18.9343 23.4965 17.5339 24 16.0003 24C14.4665 24 13.0663 23.4965 12.0002 22.6667" stroke="#E0E0E0"/>
<path d="M3.13543 17.618C2.66473 14.5549 2.42939 13.0235 3.00847 11.6658C3.58753 10.3081 4.87228 9.37923 7.44176 7.5214L9.36156 6.13332C12.558 3.82222 14.1561 2.66666 16.0003 2.66666C17.8443 2.66666 19.4425 3.82222 22.6389 6.13332L24.5587 7.5214C27.1283 9.37923 28.4129 10.3081 28.992 11.6658C29.5711 13.0235 29.3357 14.5549 28.8651 17.618L28.4637 20.2299C27.7964 24.5719 27.4628 26.7429 25.9056 28.0381C24.3484 29.3333 22.0717 29.3333 17.5187 29.3333H14.4819C9.92869 29.3333 7.65212 29.3333 6.09491 28.0381C4.53769 26.7429 4.20407 24.5719 3.53681 20.2299L3.13543 17.618Z" stroke="#E0E0E0"/>
</svg>
