<svg width="32" height="32" viewBox="0 0 32 32" fill="none" xmlns="http://www.w3.org/2000/svg">
<path d="M29.3333 16C29.3333 23.3637 23.3637 29.3333 16 29.3333C8.63616 29.3333 2.66663 23.3637 2.66663 16C2.66663 8.6362 8.63616 2.66667 16 2.66667C23.3637 2.66667 29.3333 8.6362 29.3333 16Z" stroke="#E0E0E0" stroke-width="1.33333"/>
<path d="M19.6667 12.6667C19.6667 14.6917 18.0251 16.3333 16 16.3333C13.975 16.3333 12.3334 14.6917 12.3334 12.6667C12.3334 10.6416 13.975 9 16 9C18.0251 9 19.6667 10.6416 19.6667 12.6667Z" stroke="#E0E0E0" stroke-width="1.33333"/>
<path d="M7.33325 25.3335L8.08045 24.0259C9.2674 21.9488 11.4764 20.6668 13.8688 20.6668H18.1311C20.5235 20.6668 22.7324 21.9488 23.9193 24.0259L24.6665 25.3335" stroke="#E0E0E0" stroke-width="1.33333"/>
</svg>
